<svg width="45" height="30" viewBox="0 0 45 30" fill="none" xmlns="http://www.w3.org/2000/svg">
<path d="M2.24 22.96C3.41333 26.4533 5.68 28.2 9.04 28.2C11.3067 28.2 12.88 27.56 13.76 26.28C14.6667 24.9733 15.12 23.1867 15.12 20.92V0.999998H16.32V20.92C16.32 26.5733 13.8933 29.4 9.04 29.4C6.74667 29.4 4.97333 28.8267 3.72 27.68C2.49333 26.5333 1.52 24.96 0.8 22.96H2.24ZM27.5563 27.8H43.3163V3.84L34.3163 23.12L25.3163 3.8V29L24.1163 28.96V0.959999H25.3163L34.3163 20.28L43.3163 0.999998L44.5163 0.959999V29L27.5563 28.96V27.8Z" fill="#FAFAFA"/>
</svg>
